Neil Young With Crazy Horse Psyhedelic Pill Mkv 1080p Pcm 192kHz Stereo Pcm 96kHz Stereo

Track Listings
1. Driftin' Back
2. Psychedelic Pill
3. Ramada Inn
4. Born In Ontario
5. Twisted Road
6. She's Always Dancing
7. For The Love Of Man
8. Walk Like A Giant
9. Horse Back
10. Psychedelic Pill (Alternate Mix)
11. Psychedelic Pill (Alternative Mix 2) 


General 
ID : 0 (0x0) 
Neil Young With Crazy Horse Psyhedelic Pill PCM 192kHz.m2ts 
Format : BDAV 
Format/Info : Blu-ray Video 
File size : 14.6 GiB 
Duration : 1h 25mn 
Overall bit rate mode : Variable 
Overall bit rate : 24.5 Mbps 
Maximum Overall bit rate : 48.0 Mbps 

Video 
ID : 4113 (0x1011) 
Menu ID : 1 (0x1) 
Format : AVC 
Format/Info : Advanced Video Codec 
Format profile : High@L4.1 
Format settings, CABAC : Yes 
Format settings, ReFrames : 2 frames 
Codec ID : 27 
Duration : 1h 25mn 
Bit rate mode : Variable 
Bit rate : 9 727 Kbps 
Maximum bit rate : 30.0 Mbps 
Width : 1 920 pixels 
Height : 1 080 pixels 
Display aspect ratio : 16:9 
Frame rate : 29.970 fps 
Color space : YUV 
Chroma subsampling : 4:2:0 
Bit depth : 8 bits 
Scan type : Progressive 
Bits/(Pixel*Frame) : 0.157 
Stream size : 5.80 GiB (40%) 
Writing library : x264 core 
Color primaries : BT.709 
Transfer characteristics : BT.709 
Matrix coefficients : BT.709 

Audio #1 
ID : 4352 (0x1100) 
Menu ID : 1 (0x1) 
Format : PCM 
Format settings, Endianness : Big 
Format settings, Sign : Signed 
Muxing mode : Blu-ray 
Codec ID : 128 
Duration : 1h 25mn 
Bit rate mode : Constant 
Bit rate : 4 608 Kbps 
Channel(s) : 2 channels 
Channel positions : Front: L R 
Sampling rate : 96.0 KHz 
Bit depth : 24 bits 
Stream size : 2.75 GiB (19%) 

Audio #2 
ID : 4353 (0x1101) 
Menu ID : 1 (0x1) 
Format : PCM 
Format settings, Endianness : Big 
Format settings, Sign : Signed 
Muxing mode : Blu-ray 
Codec ID : 128 
Duration : 1h 25mn 
Bit rate mode : Constant 
Bit rate : 9 216 Kbps 
Channel(s) : 2 channels 
Channel positions : Front: L R 
Sampling rate : 192 KHz 
Bit depth : 24 bits 
Stream size : 5.49 GiB (38%) 
